# xmcd
#
# Track frame offsets: 
#        150
#        20251
#        37273
#        64284
#        87178
#        109362
#        128188
#        143357
#        160442
#        177499
#        193372
#        205859
#
# Disc length: 2876 seconds
#
# Revision: 0
# Processed by: cddbd v1.5.2PL0 Copyright (c) Steve Scherf et al.
# Submitted via: ExactAudioCopy v1.3
#
DISCID=b20b3a0c
DTITLE=The Little Red Rooster Blues Ba - Livin' Large
DYEAR=2015
DGENRE=East Coast Blues
TTITLE0=10 Miles Of Bad Road
TTITLE1=Fashion King
TTITLE2=Hot Tub Woman
TTITLE3=Murph's Turf
TTITLE4=Wedding Blues
TTITLE5=Livin' Large
TTITLE6=What Good Is
TTITLE7=Fixin' Things
TTITLE8=Horsham Shuffle
TTITLE9=Jeckyl And Hyde Blues
TTITLE10=Can't Keep Me Down
TTITLE11=I Thank You
EXTD=
EXTT0=
EXTT1=
EXTT2=
EXTT3=
EXTT4=
EXTT5=
EXTT6=
EXTT7=
EXTT8=
EXTT9=
EXTT10=
EXTT11=
PLAYORDER=
